<svg width="0" height="0" class="hidden">
  <symbol fill="none" xmlns="http://www.w3.org/2000/svg" viewBox="0 0 39 37" id="arrow-up">
    <path d="M16.9074 0.999999L22.0926 1L37 16L29.9398 16L19.5926 4.93072L20.0093 5.03238L19.0139 5.03238L19.4074 4.93072L9.08333 16L2 16L16.9074 0.999999Z" fill="white" stroke="white"></path>
    <path d="M16.9074 21L22.0926 21L37 36L29.9398 36L19.5926 24.9307L20.0093 25.0324L19.0139 25.0324L19.4074 24.9307L9.08333 36L2 36L16.9074 21Z" fill="white" stroke="white"></path>
  </symbol>
  <symbol fill="none" xmlns="http://www.w3.org/2000/svg" viewBox="0 0 49 49" id="compare">
    <path d="M33.2041 25.9393V22.1987L47.9806 11.4445V16.5377L37.0763 24.0022L37.1764 23.7016V24.4197L37.0763 24.1358L47.9806 31.5836V36.6935L33.2041 25.9393Z" fill="white" stroke="white"></path>
    <path d="M26.2403 1V48H22.7588V1H26.2403Z" fill="white" stroke="white"></path>
    <path d="M15.7765 25.9393L1 36.6935V31.5836L11.9044 24.1358L11.7931 24.4197V23.7016L11.9044 24.0022L1 16.5377V11.4445L15.7765 22.1987V25.9393Z" fill="white" stroke="white"></path>
  </symbol>
  <symbol fill="none" xmlns="http://www.w3.org/2000/svg" viewBox="0 0 44 32" id="enable">
    <path d="M1 16.5143L4.3112 13.1714L15.8133 24.3143L39.6017 1L43 4.34286L15.8133 31L1 16.5143Z" fill="white" stroke="white"></path>
  </symbol>
  <symbol fill="none" xmlns="http://www.w3.org/2000/svg" viewBox="0 0 38 47" id="reset">
    <path d="M19 47C16.5039 47 14.166 46.5387 11.9863 45.6162C9.81836 44.6821 7.9082 43.3917 6.25586 41.7452C4.60352 40.0987 3.31445 38.1953 2.38867 36.035C1.46289 33.8631 1 31.5393 1 29.0637C1 26.5881 1.46289 24.2702 2.38867 22.1099C3.32617 19.9379 4.61523 18.0287 6.25586 16.3822C7.9082 14.7357 9.81836 13.4512 11.9863 12.5287C14.166 11.5945 16.5039 11.1274 19 11.1274V14.9809C17.043 14.9809 15.209 15.3487 13.498 16.0844C11.7988 16.8084 10.2988 17.8185 8.99805 19.1146C7.70898 20.3991 6.69531 21.8938 5.95703 23.5987C5.23047 25.2919 4.86719 27.1136 4.86719 29.0637C4.86719 31.0138 5.23047 32.8413 5.95703 34.5462C6.68359 36.2394 7.69141 37.7341 8.98047 39.0303C10.2812 40.3148 11.7871 41.3248 13.498 42.0605C15.209 42.7845 17.043 43.1465 19 43.1465C20.957 43.1465 22.7852 42.7845 24.4844 42.0605C26.1953 41.3248 27.7012 40.3148 29.002 39.0303C30.3027 37.7341 31.3164 36.2335 32.043 34.5287C32.7695 32.8238 33.1328 31.0021 33.1328 29.0637H37C37 31.5393 36.5312 33.8631 35.5938 36.035C34.668 38.1953 33.3789 40.0987 31.7266 41.7452C30.0742 43.3917 28.1582 44.6821 25.9785 45.6162C23.8105 46.5387 21.4844 47 19 47ZM17.875 23.8089V3L28.3164 13.4045L17.875 23.8089Z" fill="white"></path>
    <path fill-rule="evenodd" clip-rule="evenodd" d="M17.2205 0L29.4001 11.8659L17.2205 23.7317V14.1593C15.9667 14.3111 14.7724 14.6266 13.6355 15.1045L13.6336 15.1053C11.9733 15.797 10.5099 16.7605 9.23972 17.998C7.98222 19.2231 6.99261 20.6488 6.27015 22.2796C5.56446 23.8878 5.20921 25.6222 5.20921 27.4894C5.20921 29.3567 5.56451 31.0976 6.2709 32.7184C6.98094 34.3359 7.96399 35.7612 9.22173 36.9982C10.4912 38.2234 11.9604 39.1873 13.6336 39.891C15.297 40.5789 17.0837 40.925 19 40.925C20.9169 40.925 22.6975 40.5787 24.3484 39.891C26.0222 39.1871 27.4917 38.2228 28.7615 36.9971C30.0304 35.7606 31.019 34.3301 31.7289 32.7015C32.4356 31.0801 32.7908 29.3447 32.7908 27.4894V26.8743H38V27.4894C38 30.0384 37.506 32.4395 36.5142 34.6864C35.5381 36.9134 34.1773 38.8783 32.4336 40.577C30.69 42.2758 28.6676 43.607 26.3709 44.5693L26.3694 44.57C24.0744 45.5247 21.6158 46 19 46C16.3726 46 13.9024 45.5249 11.5959 44.5704L11.5921 44.5689C9.30744 43.6064 7.29153 42.2752 5.54842 40.577C3.80473 38.8783 2.44394 36.9134 1.46784 34.6864C0.488322 32.4397 0 30.0379 0 27.4894C0 24.941 0.487838 22.5457 1.46784 20.3099L1.46848 20.3084C2.4559 18.0718 3.81567 16.102 5.54683 14.4034L5.54842 14.4018C7.29192 12.7032 9.30847 11.3776 11.594 10.4266C13.373 9.68126 15.2496 9.22449 17.2205 9.05448V0ZM17.2205 10.2899C15.4185 10.4563 13.71 10.8793 12.0922 11.5572L12.0907 11.5578C9.95218 12.4475 8.07075 13.6846 6.44229 15.2709C4.82554 16.8574 3.55472 18.6969 2.62891 20.7937C1.71963 22.8685 1.26284 25.0982 1.26284 27.4894C1.26284 29.8806 1.71966 32.1167 2.62946 34.2038C3.54282 36.2874 4.81286 38.1205 6.44138 39.7071C8.07014 41.2939 9.95211 42.5373 12.0914 43.4388C14.2329 44.3247 16.5337 44.7697 19 44.7697C21.4546 44.7697 23.7436 44.3246 25.8733 43.4385C28.0247 42.5369 29.9123 41.2934 31.5407 39.7071C33.1693 38.1203 34.4395 36.2871 35.3528 34.2033L35.3535 34.2018C36.1952 32.2952 36.654 30.2643 36.7268 28.1046H34.0415C33.9704 29.8902 33.5878 31.5843 32.8912 33.1824C32.1185 34.9553 31.0386 36.5186 29.6532 37.8682L29.6512 37.8702C28.2668 39.2068 26.6639 40.2575 24.8468 41.0214L24.8449 41.0222C23.0279 41.7792 21.0773 42.1553 19 42.1553C16.9226 42.1553 14.9667 41.7792 13.1386 41.0228L13.1352 41.0214C11.3182 40.2575 9.71526 39.2068 8.33084 37.8702L8.32681 37.8663C6.95483 36.5175 5.8818 34.9612 5.10938 33.2013L5.10877 33.1999C4.33244 31.4188 3.94637 29.5133 3.94637 27.4894C3.94637 25.4656 4.33244 23.5653 5.10938 21.795L5.11021 21.7932C5.89451 20.0224 6.97361 18.4658 8.34676 17.1281C9.73112 15.7794 11.3289 14.7275 13.1362 13.9745C14.4339 13.429 15.7961 13.0781 17.2205 12.9203V10.2899ZM18.4834 14.0625C18.6545 14.0567 18.8267 14.0539 19 14.0539H19.6314V8.97883H19C18.8271 8.97883 18.6549 8.98091 18.4834 8.98508V2.97023L27.6142 11.8659L18.4834 20.7615V14.0625Z" fill="white"></path>
  </symbol>
</svg>